%TF.GenerationSoftware,Altium Limited,Altium Designer,26.9.1 (10)*%
G04 Layer_Color=8388736*
G04 Board_Origin=0|0*
%FSLAX45Y45*%
%MOMM*%
%TF.SameCoordinates,EE2BB82F-5EE7-4518-A407-7E2FC25C26D8*%
%TF.FilePolarity,Negative*%
%TF.FileFunction,Soldermask,Top*%
%TF.Part,Single*%
G01*
G75*
%TA.AperFunction,BGAPad,CuDef*%
%ADD10C,0.86300*%
%TA.AperFunction,SMDPad,CuDef*%
%ADD11O,0.25000X0.80000*%
%ADD12O,0.80000X0.25000*%
%TA.AperFunction,ConnectorPad*%
G04:AMPARAMS|DCode=13|XSize=0.6mm|YSize=0.7mm|CornerRadius=0.075mm|HoleSize=0mm|Usage=FLASHONLY|Rotation=0.000|XOffset=0mm|YOffset=0mm|HoleType=Round|Shape=RoundedRectangle|*
%AMROUNDEDRECTD13*
21,1,0.60000,0.55000,0,0,0.0*
21,1,0.45000,0.70000,0,0,0.0*
1,1,0.15000,0.22500,-0.27500*
1,1,0.15000,-0.22500,-0.27500*
1,1,0.15000,-0.22500,0.27500*
1,1,0.15000,0.22500,0.27500*
%
%ADD13ROUNDEDRECTD13*%
%TA.AperFunction,SMDPad,CuDef*%
G04:AMPARAMS|DCode=14|XSize=1.3mm|YSize=1.1mm|CornerRadius=0.055mm|HoleSize=0mm|Usage=FLASHONLY|Rotation=0.000|XOffset=0mm|YOffset=0mm|HoleType=Round|Shape=RoundedRectangle|*
%AMROUNDEDRECTD14*
21,1,1.30000,0.99000,0,0,0.0*
21,1,1.19000,1.10000,0,0,0.0*
1,1,0.11000,0.59500,-0.49500*
1,1,0.11000,-0.59500,-0.49500*
1,1,0.11000,-0.59500,0.49500*
1,1,0.11000,0.59500,0.49500*
%
%ADD14ROUNDEDRECTD14*%
%ADD15R,5.60000X5.60000*%
%ADD16R,2.60000X2.70000*%
%ADD17R,0.35000X0.80000*%
%ADD19R,1.25000X1.25000*%
G04:AMPARAMS|DCode=20|XSize=0.6mm|YSize=0.7mm|CornerRadius=0.075mm|HoleSize=0mm|Usage=FLASHONLY|Rotation=270.000|XOffset=0mm|YOffset=0mm|HoleType=Round|Shape=RoundedRectangle|*
%AMROUNDEDRECTD20*
21,1,0.60000,0.55000,0,0,270.0*
21,1,0.45000,0.70000,0,0,270.0*
1,1,0.15000,-0.27500,-0.22500*
1,1,0.15000,-0.27500,0.22500*
1,1,0.15000,0.27500,0.22500*
1,1,0.15000,0.27500,-0.22500*
%
%ADD20ROUNDEDRECTD20*%
G04:AMPARAMS|DCode=21|XSize=0.6mm|YSize=0.7mm|CornerRadius=0.075mm|HoleSize=0mm|Usage=FLASHONLY|Rotation=0.000|XOffset=0mm|YOffset=0mm|HoleType=Round|Shape=RoundedRectangle|*
%AMROUNDEDRECTD21*
21,1,0.60000,0.55000,0,0,0.0*
21,1,0.45000,0.70000,0,0,0.0*
1,1,0.15000,0.22500,-0.27500*
1,1,0.15000,-0.22500,-0.27500*
1,1,0.15000,-0.22500,0.27500*
1,1,0.15000,0.22500,0.27500*
%
%ADD21ROUNDEDRECTD21*%
%TA.AperFunction,ConnectorPad*%
%ADD22R,0.65000X1.70000*%
%ADD23R,1.38000X0.45000*%
%TA.AperFunction,SMDPad,CuDef*%
G04:AMPARAMS|DCode=24|XSize=0.8mm|YSize=1mm|CornerRadius=0.1mm|HoleSize=0mm|Usage=FLASHONLY|Rotation=90.000|XOffset=0mm|YOffset=0mm|HoleType=Round|Shape=RoundedRectangle|*
%AMROUNDEDRECTD24*
21,1,0.80000,0.80000,0,0,90.0*
21,1,0.60000,1.00000,0,0,90.0*
1,1,0.20000,0.40000,0.30000*
1,1,0.20000,0.40000,-0.30000*
1,1,0.20000,-0.40000,-0.30000*
1,1,0.20000,-0.40000,0.30000*
%
%ADD24ROUNDEDRECTD24*%
G04:AMPARAMS|DCode=25|XSize=0.8mm|YSize=1mm|CornerRadius=0.1mm|HoleSize=0mm|Usage=FLASHONLY|Rotation=0.000|XOffset=0mm|YOffset=0mm|HoleType=Round|Shape=RoundedRectangle|*
%AMROUNDEDRECTD25*
21,1,0.80000,0.80000,0,0,0.0*
21,1,0.60000,1.00000,0,0,0.0*
1,1,0.20000,0.30000,-0.40000*
1,1,0.20000,-0.30000,-0.40000*
1,1,0.20000,-0.30000,0.40000*
1,1,0.20000,0.30000,0.40000*
%
%ADD25ROUNDEDRECTD25*%
%TA.AperFunction,ConnectorPad*%
G04:AMPARAMS|DCode=26|XSize=0.6mm|YSize=0.7mm|CornerRadius=0.075mm|HoleSize=0mm|Usage=FLASHONLY|Rotation=90.000|XOffset=0mm|YOffset=0mm|HoleType=Round|Shape=RoundedRectangle|*
%AMROUNDEDRECTD26*
21,1,0.60000,0.55000,0,0,90.0*
21,1,0.45000,0.70000,0,0,90.0*
1,1,0.15000,0.27500,0.22500*
1,1,0.15000,0.27500,-0.22500*
1,1,0.15000,-0.27500,-0.22500*
1,1,0.15000,-0.27500,0.22500*
%
%ADD26ROUNDEDRECTD26*%
%TA.AperFunction,SMDPad,CuDef*%
G04:AMPARAMS|DCode=27|XSize=1.4mm|YSize=1.7mm|CornerRadius=0.175mm|HoleSize=0mm|Usage=FLASHONLY|Rotation=270.000|XOffset=0mm|YOffset=0mm|HoleType=Round|Shape=RoundedRectangle|*
%AMROUNDEDRECTD27*
21,1,1.40000,1.35000,0,0,270.0*
21,1,1.05000,1.70000,0,0,270.0*
1,1,0.35000,-0.67500,-0.52500*
1,1,0.35000,-0.67500,0.52500*
1,1,0.35000,0.67500,0.52500*
1,1,0.35000,0.67500,-0.52500*
%
%ADD27ROUNDEDRECTD27*%
G04:AMPARAMS|DCode=28|XSize=1.4mm|YSize=1.7mm|CornerRadius=0.175mm|HoleSize=0mm|Usage=FLASHONLY|Rotation=180.000|XOffset=0mm|YOffset=0mm|HoleType=Round|Shape=RoundedRectangle|*
%AMROUNDEDRECTD28*
21,1,1.40000,1.35000,0,0,180.0*
21,1,1.05000,1.70000,0,0,180.0*
1,1,0.35000,-0.52500,0.67500*
1,1,0.35000,0.52500,0.67500*
1,1,0.35000,0.52500,-0.67500*
1,1,0.35000,-0.52500,-0.67500*
%
%ADD28ROUNDEDRECTD28*%
%TA.AperFunction,ConnectorPad*%
%ADD29R,3.50000X1.25000*%
%ADD30R,1.55000X1.42500*%
%ADD31R,1.90000X1.00000*%
%ADD32R,1.90000X1.80000*%
%ADD33R,1.30000X1.65000*%
%ADD34R,1.00000X2.90000*%
%TA.AperFunction,ComponentPad*%
%ADD35C,1.06700*%
%TA.AperFunction,ViaPad*%
%ADD36C,0.50000*%
%TA.AperFunction,SMDPad,CuDef*%
%ADD42R,1.05320X0.55320*%
D10*
X9973000Y8950000D02*
D03*
X10100000D02*
D03*
X10227000D02*
D03*
X9973000Y9077000D02*
D03*
X10100000D02*
D03*
X10227000D02*
D03*
D11*
X9636500Y8556900D02*
D03*
X9236500D02*
D03*
X9686500Y7876900D02*
D03*
X9186500Y8556900D02*
D03*
X9736500Y7876900D02*
D03*
Y8556900D02*
D03*
X9286500D02*
D03*
X9336500D02*
D03*
X9386500D02*
D03*
X9436500D02*
D03*
X9486500D02*
D03*
X9536500D02*
D03*
X9586500D02*
D03*
X9686500D02*
D03*
X9636500Y7876900D02*
D03*
X9586500D02*
D03*
X9536500D02*
D03*
X9486500D02*
D03*
X9436500D02*
D03*
X9386500D02*
D03*
X9336500D02*
D03*
X9286500D02*
D03*
X9236500D02*
D03*
X9186500D02*
D03*
D12*
X9121500Y8191900D02*
D03*
X9801500Y8441900D02*
D03*
X9121500Y8141900D02*
D03*
X9801500Y8491900D02*
D03*
X9121500Y8091900D02*
D03*
Y8491900D02*
D03*
X9801500Y8391900D02*
D03*
Y8341900D02*
D03*
Y8291900D02*
D03*
Y8241900D02*
D03*
Y8191900D02*
D03*
Y8141900D02*
D03*
Y8091900D02*
D03*
Y8041900D02*
D03*
Y7991900D02*
D03*
Y7941900D02*
D03*
X9121500D02*
D03*
Y7991900D02*
D03*
Y8041900D02*
D03*
Y8241900D02*
D03*
Y8291900D02*
D03*
Y8341900D02*
D03*
Y8391900D02*
D03*
Y8441900D02*
D03*
D13*
X10100000Y9300000D02*
D03*
X10000000D02*
D03*
X9900000D02*
D03*
X10200000D02*
D03*
D14*
X8485000Y7845000D02*
D03*
X8715000Y7655000D02*
D03*
Y7845000D02*
D03*
X8485000Y7655000D02*
D03*
D15*
X9461500Y8216900D02*
D03*
D16*
X8500000Y8950000D02*
D03*
D17*
X8625000Y8750000D02*
D03*
Y9150000D02*
D03*
X8375000Y8750000D02*
D03*
X8425000D02*
D03*
X8475000D02*
D03*
X8525000D02*
D03*
X8575000D02*
D03*
X8375000Y9150000D02*
D03*
X8425000D02*
D03*
X8475000D02*
D03*
X8525000D02*
D03*
X8575000D02*
D03*
D19*
X10829000Y7279500D02*
D03*
X10600000D02*
D03*
X10371000D02*
D03*
D20*
X9350000Y8900000D02*
D03*
X11400000Y7150000D02*
D03*
X9950000Y8400000D02*
D03*
X8950000Y8150000D02*
D03*
Y8350000D02*
D03*
X8850000Y8800000D02*
D03*
X11400000Y6850000D02*
D03*
X9950000Y8500000D02*
D03*
X8950000Y8050000D02*
D03*
Y8450000D02*
D03*
X11400000Y7250000D02*
D03*
Y6950000D02*
D03*
X8850000Y8900000D02*
D03*
X9350000Y8800000D02*
D03*
D21*
X10000000Y7850000D02*
D03*
X9250000Y8700000D02*
D03*
X9750000Y7700000D02*
D03*
X8800000Y8000000D02*
D03*
X8450000D02*
D03*
X8500000Y8600000D02*
D03*
X9300000Y9000000D02*
D03*
X9600000D02*
D03*
X9150000Y8700000D02*
D03*
X9850000Y7700000D02*
D03*
X8400000Y8600000D02*
D03*
X9400000Y9000000D02*
D03*
X9500000D02*
D03*
X10100000Y7850000D02*
D03*
Y8000000D02*
D03*
X10000000D02*
D03*
X8800000Y8100000D02*
D03*
X8700000D02*
D03*
X8700000Y8000000D02*
D03*
X8550000D02*
D03*
D22*
X9662500Y7040000D02*
D03*
X9037500D02*
D03*
X9162500D02*
D03*
X9412500D02*
D03*
X9537500D02*
D03*
X9287500D02*
D03*
D23*
X11119000Y8380000D02*
D03*
Y8315000D02*
D03*
Y8250000D02*
D03*
Y8185000D02*
D03*
Y8120000D02*
D03*
D24*
X8800000Y8325000D02*
D03*
X10700000Y7775000D02*
D03*
X10850000D02*
D03*
X8800000Y8475000D02*
D03*
X10700000Y7925000D02*
D03*
X10850000D02*
D03*
D25*
X9475000Y7700000D02*
D03*
X10675000Y8050000D02*
D03*
X10825000D02*
D03*
X9625000Y7700000D02*
D03*
D26*
X8150000Y9050000D02*
D03*
Y8850000D02*
D03*
Y9150000D02*
D03*
Y8950000D02*
D03*
D27*
X11100000Y7064300D02*
D03*
Y6835700D02*
D03*
D28*
X10714300Y7499999D02*
D03*
X10485700D02*
D03*
D29*
X10600000Y6620500D02*
D03*
D30*
X11127500Y8498750D02*
D03*
Y8001250D02*
D03*
D31*
X11385000Y8405000D02*
D03*
D32*
Y8135000D02*
D03*
D33*
Y8587500D02*
D03*
Y7912500D02*
D03*
D34*
X8852500Y6760000D02*
D03*
X9847500D02*
D03*
D35*
X9846000Y9115100D02*
D03*
Y8911900D02*
D03*
X10354000Y9013500D02*
D03*
D36*
X8555000Y9005000D02*
D03*
X8445000Y8895000D02*
D03*
Y9005000D02*
D03*
X8555000Y8895000D02*
D03*
X9461500Y7996900D02*
D03*
X9351500D02*
D03*
X9241500D02*
D03*
X9461500Y8106900D02*
D03*
X9351500D02*
D03*
X9241500D02*
D03*
X9461500Y8216900D02*
D03*
X9351500D02*
D03*
X9241500D02*
D03*
X9461500Y8326900D02*
D03*
X9351500D02*
D03*
X9241500D02*
D03*
X9461500Y8436900D02*
D03*
X9351500D02*
D03*
X9241500D02*
D03*
X9681500Y7996900D02*
D03*
X9571500D02*
D03*
X9681500Y8106900D02*
D03*
X9571500D02*
D03*
X9681500Y8216900D02*
D03*
X9571500D02*
D03*
X9681500Y8326900D02*
D03*
X9571500D02*
D03*
Y8436900D02*
D03*
X9681500D02*
D03*
D42*
X8302500Y8875000D02*
D03*
Y8975000D02*
D03*
Y9025000D02*
D03*
X8697500Y8825000D02*
D03*
Y8875000D02*
D03*
Y8925000D02*
D03*
Y8975000D02*
D03*
Y9025000D02*
D03*
Y9075000D02*
D03*
X8302500Y8825000D02*
D03*
Y8925000D02*
D03*
Y9075000D02*
D03*
%TF.MD5,385e7510db1e1821f4b09fb1729537ad*%
M02*
