%TF.GenerationSoftware,Altium Limited,Altium Designer,26.9.1 (10)*%
G04 Layer_Physical_Order=2*
G04 Layer_Color=36540*
G04 Board_Origin=0|0*
%FSLAX45Y45*%
%MOMM*%
%TF.SameCoordinates,EE2BB82F-5EE7-4518-A407-7E2FC25C26D8*%
%TF.FilePolarity,Positive*%
%TF.FileFunction,Copper,L2,Inr,Signal*%
%TF.Part,Single*%
G01*
G75*
%TA.AperFunction,ComponentPad*%
%ADD35C,1.06700*%
%TA.AperFunction,ViaPad*%
%ADD36C,0.50000*%
D35*
X9846000Y9115100D02*
D03*
Y8911900D02*
D03*
X10354000Y9013500D02*
D03*
D36*
X8555000Y9005000D02*
D03*
X8445000Y8895000D02*
D03*
Y9005000D02*
D03*
X8555000Y8895000D02*
D03*
X9461500Y7996900D02*
D03*
X9351500D02*
D03*
X9241500D02*
D03*
X9461500Y8106900D02*
D03*
X9351500D02*
D03*
X9241500D02*
D03*
X9461500Y8216900D02*
D03*
X9351500D02*
D03*
X9241500D02*
D03*
X9461500Y8326900D02*
D03*
X9351500D02*
D03*
X9241500D02*
D03*
X9461500Y8436900D02*
D03*
X9351500D02*
D03*
X9241500D02*
D03*
X9681500Y7996900D02*
D03*
X9571500D02*
D03*
X9681500Y8106900D02*
D03*
X9571500D02*
D03*
X9681500Y8216900D02*
D03*
X9571500D02*
D03*
X9681500Y8326900D02*
D03*
X9571500D02*
D03*
Y8436900D02*
D03*
X9681500D02*
D03*
%TF.MD5,4485d8b4bb25f4421d47fa301fa5ab50*%
M02*
