%TF.GenerationSoftware,Altium Limited,Altium Designer,26.9.1 (10)*%
G04 Layer_Color=65535*
G04 Board_Origin=0|0*
%FSLAX45Y45*%
%MOMM*%
%TF.SameCoordinates,EE2BB82F-5EE7-4518-A407-7E2FC25C26D8*%
%TF.FilePolarity,Positive*%
%TF.FileFunction,Legend,Top*%
%TF.Part,Single*%
G01*
G75*
%TA.AperFunction,NonConductor*%
%ADD37C,0.25000*%
%ADD38C,0.25400*%
%ADD39C,0.17500*%
%ADD40C,0.20000*%
%ADD41C,0.30000*%
D37*
X10962500Y7279500D02*
G03*
X10962500Y7279500I-12500J0D01*
G01*
X9039000Y8571900D02*
G03*
X9039000Y8571900I-12500J0D01*
G01*
X10977500Y8117500D02*
G03*
X10977500Y8117500I-12500J0D01*
G01*
X8637500Y9245000D02*
G03*
X8637500Y9245000I-12500J0D01*
G01*
D38*
X8956788Y7081327D02*
G03*
X8956788Y7081327I-10270J0D01*
G01*
D39*
X9750000Y8823500D02*
Y9203500D01*
Y8823500D02*
X10330000D01*
X10450000Y8943500D01*
Y9083500D01*
X10330000Y9203500D02*
X10450000Y9083500D01*
X9750000Y9203500D02*
X10330000D01*
X11335285Y6884715D02*
Y7010000D01*
X11464715D01*
Y6884715D02*
Y7010000D01*
X10034715Y7935285D02*
X10160000D01*
Y8064715D01*
X10034715D02*
X10160000D01*
D40*
X10274750Y7125250D02*
X10925250D01*
X10274750Y6774749D02*
Y7125250D01*
Y6774749D02*
X10925250D01*
Y7125250D01*
X9091500Y7846900D02*
X9134000D01*
X9091500D02*
Y7889400D01*
X9789000Y7846900D02*
X9831500D01*
Y7889400D01*
Y8544400D02*
Y8586900D01*
X9789000D02*
X9831500D01*
X9091500D02*
X9134000D01*
X9091500Y8544400D02*
Y8586900D01*
X11015000Y7845500D02*
X11282500D01*
X11015000Y8654500D02*
X11282500D01*
X11015000Y8607500D02*
Y8654500D01*
Y7845500D02*
Y7892500D01*
X8715000Y8735000D02*
Y8767500D01*
X8682500Y8735000D02*
X8715000D01*
X8285000D02*
X8317500D01*
X8285000D02*
Y8767500D01*
Y9132500D02*
Y9165000D01*
X8317500D01*
X8715000Y9132500D02*
Y9165000D01*
X8682500D02*
X8715000D01*
X8376927Y7560715D02*
Y7650000D01*
Y7560715D02*
X8500000D01*
D41*
X8750000Y6675000D02*
Y7050000D01*
X8875000Y7175000D01*
X9825000D01*
X9950000Y7050000D01*
Y6675000D02*
Y7050000D01*
%TF.MD5,9976afdc07b88c61088ce7a02e3c7b4b*%
M02*
